<svg xmlns="http://www.w3.org/2000/svg" width="100" height="60" viewBox="0 0 100 60">
    <rect width="100" height="60" rx="10" fill="#1434CB"/>
    <path d="M38.5 40L42.5 20H49L45 40H38.5ZM66.5 21.5C65 20.8 62.5 20 59.5 20C52.5 20 47.5 23.5 47.5 28.5C47.5 32.5 51 34.5 53.5 36C56.1 37.5 57 38.5 57 40C57 42 54.5 43 52 43C49 43 47.5 42.5 46 41.5L45 46.5C46.5 47.3 49 48 52 48C59.5 48 64.5 44.5 64.5 39.5C64.5 35.5 61.5 33.5 59 32C56.5 30.5 55.5 29.5 55.5 28C55.5 26 57 24.5 59.5 24.5C61.5 24.5 63 25 64 25.5L66.5 21.5ZM84 40H78.5L73 20H79.5L82 33.5L84.5 20H90.5L84 40Z" fill="white"/>
</svg>
